<svg xmlns="http://www.w3.org/2000/svg" viewBox="0 0 512 512">
  <defs>
    <linearGradient id="bg" x1="60" y1="30" x2="450" y2="490" gradientUnits="userSpaceOnUse"><stop stop-color="#12233d"/><stop offset="1" stop-color="#020712"/></linearGradient>
    <linearGradient id="brand" x1="142" y1="398" x2="404" y2="112" gradientUnits="userSpaceOnUse"><stop stop-color="#22c55e"/><stop offset=".52" stop-color="#06b6d4"/><stop offset="1" stop-color="#2563eb"/></linearGradient>
  </defs>
  <rect x="18" y="18" width="476" height="476" rx="112" fill="url(#bg)" stroke="#243b63" stroke-width="4"/>
  <path d="M257 140v209c0 43-35 78-78 78-37 0-67-23-67-54 0-34 37-58 76-44 10 3 19 8 26 14V177c0-18 11-33 28-38l118-35v49l-103 31" fill="url(#brand)"/>
  <path d="M257 202l101-30m-101 91l117-34m-117 98l93-27" fill="none" stroke="url(#brand)" stroke-width="22" stroke-linecap="round"/>
  <circle cx="374" cy="167" r="15" fill="#2563eb" stroke="#67e8f9" stroke-width="5"/><circle cx="389" cy="225" r="15" fill="#2563eb" stroke="#67e8f9" stroke-width="5"/><circle cx="363" cy="296" r="15" fill="#2563eb" stroke="#67e8f9" stroke-width="5"/>
  <path d="M101 256h30m-15-15v30M408 107h24m-12-12v24" stroke="#22c55e" stroke-width="9" stroke-linecap="round"/>
</svg>
